<svg width="19" height="19" viewBox="0 0 19 19" fill="none" xmlns="http://www.w3.org/2000/svg">
<rect width="19" height="19" rx="1.93953" fill="black"/>
<path d="M10.6486 12.2743L14.3745 8.54798V5.16676C14.3745 3.97179 13.4028 3 12.2079 3H6.79151C6.21712 3.00043 5.66638 3.22878 5.26017 3.63491C4.85397 4.04105 4.62551 4.59178 4.62493 5.16622V8.54798L8.35036 12.2743C8.96458 12.888 10.0349 12.888 10.6486 12.2743ZM6.96429 7.62386C6.86222 7.52533 6.80287 7.39068 6.799 7.24886C6.79514 7.10704 6.84706 6.96936 6.94362 6.86541C7.04018 6.76147 7.17366 6.69956 7.31537 6.69299C7.45708 6.68642 7.59571 6.73572 7.70147 6.83028L8.70405 7.76253C8.84976 7.9077 9.06479 7.90825 9.19749 7.77553L11.2899 5.75828C11.3932 5.65851 11.532 5.60388 11.6756 5.60642C11.8192 5.60896 11.956 5.66846 12.0557 5.77182C12.1555 5.87519 12.2101 6.01396 12.2076 6.1576C12.2051 6.30125 12.1456 6.438 12.0422 6.53777L9.95634 8.54852C9.82543 8.67899 9.67005 8.78232 9.49912 8.8526C9.32819 8.92287 9.14506 8.95871 8.96025 8.95804C8.77314 8.95836 8.5878 8.92178 8.41484 8.85039C8.24188 8.77901 8.08468 8.67422 7.95225 8.54202L6.96429 7.62386ZM15.9995 9.88324V13.2916C15.9995 14.785 14.7846 16 13.2912 16H5.70822C4.21491 16 3 14.785 3 13.2916V9.88324C3 9.47914 3.09966 9.08588 3.27082 8.72566L7.58502 13.0408C8.09687 13.5521 8.77663 13.8338 9.50027 13.8338C10.2239 13.8338 10.9037 13.5521 11.415 13.0408L15.7292 8.72566C15.9003 9.08588 15.9995 9.47969 15.9995 9.88324Z" fill="white"/>
</svg>
