<svg width="17" height="17" viewBox="0 0 17 17" fill="none" xmlns="http://www.w3.org/2000/svg">
<g clip-path="url(#clip0_2016_5576)">
<path d="M12.1679 11.3176C12.1057 11.3176 12.0441 11.3053 11.9867 11.2815C11.9292 11.2577 11.877 11.2228 11.833 11.1788C11.789 11.1348 11.7541 11.0826 11.7303 11.0252C11.7065 10.9677 11.6942 10.9061 11.6942 10.844L11.6907 5.96518L5.1448 12.5111C5.05616 12.5997 4.93588 12.6494 4.81043 12.6493C4.68498 12.6492 4.56462 12.5993 4.47584 12.5105C4.38706 12.4217 4.33713 12.3014 4.33703 12.1759C4.33692 12.0505 4.38666 11.9302 4.4753 11.8416L11.0212 5.29569L6.14239 5.29216C6.01687 5.29206 5.89645 5.2421 5.80762 5.15327C5.71879 5.06444 5.66883 4.94401 5.66872 4.81849C5.66862 4.69297 5.71839 4.57263 5.80708 4.48394C5.89576 4.39525 6.0161 4.34549 6.14163 4.34559L12.1622 4.35046C12.2244 4.35047 12.286 4.36274 12.3434 4.38656C12.4009 4.41038 12.4531 4.44528 12.4971 4.48927C12.5411 4.53326 12.576 4.58548 12.5998 4.64294C12.6236 4.70039 12.6359 4.76196 12.6359 4.82412L12.6408 10.8447C12.6409 10.9069 12.6287 10.9684 12.605 11.0259C12.5812 11.0833 12.5464 11.1354 12.5025 11.1794C12.4586 11.2233 12.4064 11.2581 12.349 11.2818C12.2916 11.3055 12.23 11.3177 12.1679 11.3176Z" fill="black"/>
</g>
<defs>
<clipPath id="clip0_2016_5576">
<rect width="12" height="12" fill="white" transform="translate(8.48535 0.0146484) rotate(45)"/>
</clipPath>
</defs>
</svg>
