<svg width="21" height="19" viewBox="0 0 21 19" fill="none" xmlns="http://www.w3.org/2000/svg">
<rect width="20.4178" height="19" rx="1.92301" fill="black"/>
<g clip-path="url(#clip0_2016_8881)">
<path d="M11.8548 9.34621C11.8852 9.36128 11.9104 9.38361 11.9278 9.41079C11.9451 9.43796 11.9539 9.46893 11.9532 9.50033C11.9549 9.5271 11.9495 9.55387 11.9373 9.57832C11.9252 9.60278 11.9066 9.62419 11.8833 9.64071L8.75637 11.0594C8.72659 11.0743 8.69304 11.0819 8.65902 11.0816C8.625 11.0812 8.59167 11.0728 8.56231 11.0572C8.53296 11.0416 8.50858 11.0193 8.49158 10.9926C8.47457 10.9659 8.46553 10.9356 8.46533 10.9047V8.09591C8.46467 8.06459 8.47343 8.03371 8.49065 8.00656C8.50788 7.97941 8.53293 7.95702 8.56312 7.9418C8.59091 7.92726 8.62243 7.91962 8.65451 7.91963C8.70144 7.92088 8.7472 7.93326 8.78722 7.95552L11.8548 9.34621ZM17.1966 5.80588V13.1948C17.1957 13.8944 16.8888 14.5651 16.3431 15.0598C15.7975 15.5545 15.0578 15.8328 14.2862 15.8337H6.13699C5.36538 15.8328 4.62564 15.5545 4.08003 15.0598C3.53442 14.5651 3.22749 13.8944 3.22656 13.1948L3.22656 5.80588C3.22749 5.10626 3.53442 4.43554 4.08003 3.94083C4.62564 3.44612 5.36538 3.16783 6.13699 3.16699L14.2862 3.16699C15.0578 3.16783 15.7975 3.44612 16.3431 3.94083C16.8888 4.43554 17.1957 5.10626 17.1966 5.80588ZM13.1174 9.50033C13.1176 9.27795 13.0513 9.05968 12.9257 8.86871C12.8 8.67774 12.6196 8.52121 12.4037 8.41574L9.33147 7.02505C9.12454 6.9174 8.89003 6.86099 8.65146 6.86147C8.41289 6.86196 8.17865 6.91932 7.97226 7.02781C7.76586 7.1363 7.59456 7.2921 7.47554 7.47957C7.35653 7.66704 7.29398 7.8796 7.29418 8.09591V10.9047C7.29278 11.121 7.35478 11.3337 7.47383 11.5212C7.59287 11.7086 7.7647 11.8639 7.97172 11.9714C8.18128 12.0823 8.41942 12.1411 8.66208 12.1419C8.88656 12.1428 9.10737 12.0902 9.30237 11.9893L12.4317 10.5712C12.6409 10.4644 12.8148 10.3087 12.9354 10.1204C13.0559 9.93214 13.1188 9.71804 13.1174 9.50033Z" fill="white"/>
</g>
<defs>
<clipPath id="clip0_2016_8881">
<rect width="13.97" height="12.6667" fill="white" transform="translate(3.22266 3.16699)"/>
</clipPath>
</defs>
</svg>
